<svg id="visual" viewBox="0 0 960 540" width="960" height="540" xmlns="http://www.w3.org/2000/svg" xmlns:xlink="http://www.w3.org/1999/xlink" version="1.1"><path d="M0 276L14.5 274.2C29 272.3 58 268.7 87.2 267.5C116.3 266.3 145.7 267.7 174.8 277C204 286.3 233 303.7 262 304.5C291 305.3 320 289.7 349 294C378 298.3 407 322.7 436.2 319.7C465.3 316.7 494.7 286.3 523.8 277.2C553 268 582 280 611 276.2C640 272.3 669 252.7 698 241.7C727 230.7 756 228.3 785.2 232.8C814.3 237.3 843.7 248.7 872.8 260.7C902 272.7 931 285.3 945.5 291.7L960 298L960 541L945.5 541C931 541 902 541 872.8 541C843.7 541 814.3 541 785.2 541C756 541 727 541 698 541C669 541 640 541 611 541C582 541 553 541 523.8 541C494.7 541 465.3 541 436.2 541C407 541 378 541 349 541C320 541 291 541 262 541C233 541 204 541 174.8 541C145.7 541 116.3 541 87.2 541C58 541 29 541 14.5 541L0 541Z" fill="#ff7300"></path><path d="M0 375L14.5 374.5C29 374 58 373 87.2 372C116.3 371 145.7 370 174.8 371C204 372 233 375 262 369.7C291 364.3 320 350.7 349 343C378 335.3 407 333.7 436.2 330.2C465.3 326.7 494.7 321.3 523.8 316.7C553 312 582 308 611 306.2C640 304.3 669 304.7 698 298C727 291.3 756 277.7 785.2 283.5C814.3 289.3 843.7 314.7 872.8 326.8C902 339 931 338 945.5 337.5L960 337L960 541L945.5 541C931 541 902 541 872.8 541C843.7 541 814.3 541 785.2 541C756 541 727 541 698 541C669 541 640 541 611 541C582 541 553 541 523.8 541C494.7 541 465.3 541 436.2 541C407 541 378 541 349 541C320 541 291 541 262 541C233 541 204 541 174.8 541C145.7 541 116.3 541 87.2 541C58 541 29 541 14.5 541L0 541Z" fill="#fe6321"></path><path d="M0 340L14.5 337.2C29 334.3 58 328.7 87.2 331C116.3 333.3 145.7 343.7 174.8 341.7C204 339.7 233 325.3 262 330.2C291 335 320 359 349 359.2C378 359.3 407 335.7 436.2 333.2C465.3 330.7 494.7 349.3 523.8 361.8C553 374.3 582 380.7 611 385C640 389.3 669 391.7 698 378.5C727 365.3 756 336.7 785.2 321.5C814.3 306.3 843.7 304.7 872.8 311.7C902 318.7 931 334.3 945.5 342.2L960 350L960 541L945.5 541C931 541 902 541 872.8 541C843.7 541 814.3 541 785.2 541C756 541 727 541 698 541C669 541 640 541 611 541C582 541 553 541 523.8 541C494.7 541 465.3 541 436.2 541C407 541 378 541 349 541C320 541 291 541 262 541C233 541 204 541 174.8 541C145.7 541 116.3 541 87.2 541C58 541 29 541 14.5 541L0 541Z" fill="#fa5433"></path><path d="M0 398L14.5 388.3C29 378.7 58 359.3 87.2 353.5C116.3 347.7 145.7 355.3 174.8 363C204 370.7 233 378.3 262 381.8C291 385.3 320 384.7 349 383.8C378 383 407 382 436.2 375C465.3 368 494.7 355 523.8 354.8C553 354.7 582 367.3 611 377.7C640 388 669 396 698 389.8C727 383.7 756 363.3 785.2 352.5C814.3 341.7 843.7 340.3 872.8 351.2C902 362 931 385 945.5 396.5L960 408L960 541L945.5 541C931 541 902 541 872.8 541C843.7 541 814.3 541 785.2 541C756 541 727 541 698 541C669 541 640 541 611 541C582 541 553 541 523.8 541C494.7 541 465.3 541 436.2 541C407 541 378 541 349 541C320 541 291 541 262 541C233 541 204 541 174.8 541C145.7 541 116.3 541 87.2 541C58 541 29 541 14.5 541L0 541Z" fill="#f44641"></path><path d="M0 370L14.5 371.3C29 372.7 58 375.3 87.2 388C116.3 400.7 145.7 423.3 174.8 432.5C204 441.7 233 437.3 262 425.5C291 413.7 320 394.3 349 390C378 385.7 407 396.3 436.2 404.5C465.3 412.7 494.7 418.3 523.8 419.5C553 420.7 582 417.3 611 412.3C640 407.3 669 400.7 698 394.5C727 388.3 756 382.7 785.2 385.7C814.3 388.7 843.7 400.3 872.8 401.8C902 403.3 931 394.7 945.5 390.3L960 386L960 541L945.5 541C931 541 902 541 872.8 541C843.7 541 814.3 541 785.2 541C756 541 727 541 698 541C669 541 640 541 611 541C582 541 553 541 523.8 541C494.7 541 465.3 541 436.2 541C407 541 378 541 349 541C320 541 291 541 262 541C233 541 204 541 174.8 541C145.7 541 116.3 541 87.2 541C58 541 29 541 14.5 541L0 541Z" fill="#ec394d"></path><path d="M0 468L14.5 457.7C29 447.3 58 426.7 87.2 422.5C116.3 418.3 145.7 430.7 174.8 441C204 451.3 233 459.7 262 462.3C291 465 320 462 349 460.8C378 459.7 407 460.3 436.2 458.8C465.3 457.3 494.7 453.7 523.8 451.7C553 449.7 582 449.3 611 444C640 438.7 669 428.3 698 424.8C727 421.3 756 424.7 785.2 425C814.3 425.3 843.7 422.7 872.8 427.2C902 431.7 931 443.3 945.5 449.2L960 455L960 541L945.5 541C931 541 902 541 872.8 541C843.7 541 814.3 541 785.2 541C756 541 727 541 698 541C669 541 640 541 611 541C582 541 553 541 523.8 541C494.7 541 465.3 541 436.2 541C407 541 378 541 349 541C320 541 291 541 262 541C233 541 204 541 174.8 541C145.7 541 116.3 541 87.2 541C58 541 29 541 14.5 541L0 541Z" fill="#e12e57"></path><path d="M0 467L14.5 464.2C29 461.3 58 455.7 87.2 457.8C116.3 460 145.7 470 174.8 476C204 482 233 484 262 478.5C291 473 320 460 349 459C378 458 407 469 436.2 471C465.3 473 494.7 466 523.8 462.7C553 459.3 582 459.7 611 461.3C640 463 669 466 698 464C727 462 756 455 785.2 451.5C814.3 448 843.7 448 872.8 448C902 448 931 448 945.5 448L960 448L960 541L945.5 541C931 541 902 541 872.8 541C843.7 541 814.3 541 785.2 541C756 541 727 541 698 541C669 541 640 541 611 541C582 541 553 541 523.8 541C494.7 541 465.3 541 436.2 541C407 541 378 541 349 541C320 541 291 541 262 541C233 541 204 541 174.8 541C145.7 541 116.3 541 87.2 541C58 541 29 541 14.5 541L0 541Z" fill="#d42760"></path><path d="M0 478L14.5 481.8C29 485.7 58 493.3 87.2 495C116.3 496.7 145.7 492.3 174.8 494.8C204 497.3 233 506.7 262 506.3C291 506 320 496 349 492.3C378 488.7 407 491.3 436.2 492.2C465.3 493 494.7 492 523.8 494.7C553 497.3 582 503.7 611 506.3C640 509 669 508 698 508.2C727 508.3 756 509.7 785.2 506.2C814.3 502.7 843.7 494.3 872.8 492.3C902 490.3 931 494.7 945.5 496.8L960 499L960 541L945.5 541C931 541 902 541 872.8 541C843.7 541 814.3 541 785.2 541C756 541 727 541 698 541C669 541 640 541 611 541C582 541 553 541 523.8 541C494.7 541 465.3 541 436.2 541C407 541 378 541 349 541C320 541 291 541 262 541C233 541 204 541 174.8 541C145.7 541 116.3 541 87.2 541C58 541 29 541 14.5 541L0 541Z" fill="#c62368"></path></svg>