<svg id="visual" viewBox="0 0 900 600" width="900" height="600" xmlns="http://www.w3.org/2000/svg" xmlns:xlink="http://www.w3.org/1999/xlink" version="1.1">
<path d="M0 43L21.5 41.8C43 40.7 86 38.3 128.8 36C171.7 33.7 214.3 31.3 257.2 33C300 34.7 343 40.3 385.8 40.7C428.7 41 471.3 36 514.2 34C557 32 600 33 642.8 32.7C685.7 32.3 728.3 30.7 771.2 32.3C814 34 857 39 878.5 41.5L900 44L900 0L878.5 0C857 0 814 0 771.2 0C728.3 0 685.7 0 642.8 0C600 0 557 0 514.2 0C471.3 0 428.7 0 385.8 0C343 0 300 0 257.2 0C214.3 0 171.7 0 128.8 0C86 0 43 0 21.5 0L0 0Z" fill="#c62368"></path>
<path d="M0 27L21.5 25.2C43 23.3 86 19.7 128.8 19.5C171.7 19.3 214.3 22.7 257.2 24.3C300 26 343 26 385.8 25.3C428.7 24.7 471.3 23.3 514.2 24.2C557 25 600 28 642.8 28.3C685.7 28.7 728.3 26.3 771.2 25.3C814 24.3 857 24.7 878.5 24.8L900 25L900 0L878.5 0C857 0 814 0 771.2 0C728.3 0 685.7 0 642.8 0C600 0 557 0 514.2 0C471.3 0 428.7 0 385.8 0C343 0 300 0 257.2 0C214.3 0 171.7 0 128.8 0C86 0 43 0 21.5 0L0 0Z" fill="#c62368"></path>
<path d="M0 16L21.5 15.5C43 15 86 14 128.8 12.7C171.7 11.3 214.3 9.7 257.2 10.5C300 11.3 343 14.7 385.8 15C428.7 15.3 471.3 12.7 514.2 13C557 13.3 600 16.7 642.8 17C685.7 17.3 728.3 14.7 771.2 14.5C814 14.3 857 16.7 878.5 17.8L900 19L900 0L878.5 0C857 0 814 0 771.2 0C728.3 0 685.7 0 642.8 0C600 0 557 0 514.2 0C471.3 0 428.7 0 385.8 0C343 0 300 0 257.2 0C214.3 0 171.7 0 128.8 0C86 0 43 0 21.5 0L0 0Z" fill="#c62368"></path>
</svg>
